<?xml version="1.0" encoding="UTF-8"?> <svg xmlns="http://www.w3.org/2000/svg" width="49" height="57" viewBox="0 0 49 57" fill="none"> <path d="M46.1667 0.5H2.83333C1.34375 0.5 0.125 1.7375 0.125 3.25V6C0.125 7.5125 1.34375 8.75 2.83333 8.75H5.54167V33.5H21.7917V40.6225L10.3896 52.1725L14.2354 56.0775L21.7917 48.3775V55.5H27.2083V48.3775L34.7646 56.0775L38.6104 52.1725L27.2083 40.6225V33.5H43.4583V8.75H46.1667C47.6562 8.75 48.875 7.5125 48.875 6V3.25C48.875 1.7375 47.6562 0.5 46.1667 0.5ZM38.0417 28H10.9583V8.75H38.0417V28Z" fill="#041B69"></path> </svg> 