<?xml version="1.0" encoding="UTF-8"?> <svg xmlns="http://www.w3.org/2000/svg" width="81" height="81" viewBox="0 0 81 81" fill="none"> <path d="M43.615 7.06458V7.13124V13.7979C58.2483 15.5979 68.615 28.8979 66.815 43.5312C65.2816 55.6646 55.7483 65.2979 43.615 66.7312V73.3979C61.9483 71.5646 75.2816 55.2979 73.4483 36.9646C71.9483 21.1312 59.3816 8.63124 43.615 7.06458ZM36.9483 7.16458C30.4483 7.79791 24.2483 10.2979 19.1816 14.4979L23.9483 19.4312C27.6816 16.4312 32.1816 14.4979 36.9483 13.8312V7.16458ZM14.4816 19.1979C10.2816 24.2646 7.78163 30.4312 7.11496 36.9646H13.7816C14.415 32.2312 16.2816 27.7312 19.2483 23.9646L14.4816 19.1979ZM51.9483 28.6312L35.6816 44.8979L28.615 37.8312L25.0816 41.3646L35.6816 51.9646L55.4816 32.1646L51.9483 28.6312ZM7.14829 43.6312C7.81496 50.1646 10.3816 56.3312 14.515 61.3979L19.2483 56.6312C16.315 52.8646 14.415 48.3646 13.815 43.6312H7.14829ZM23.9483 61.5312L19.1816 66.0979C24.215 70.2979 30.415 72.9312 36.9483 73.6312V66.9646C32.215 66.3646 27.715 64.4646 23.9483 61.5312Z" fill="#041B69"></path> </svg> 